Coordinates
version=1
nRows=6
nColumns=63
inDegrees=yes

Units are S.I. units (second, meters, Newtons, ...)
If the header above contains a line with 'inDegrees', this indicates whether rotational values are in degrees (yes) or radians (no).

endheader
time	pelvis_tilt	pelvis_list	pelvis_rotation	pelvis_tx	pelvis_ty	pelvis_tz	hip_flexion_r	hip_adduction_r	hip_rotation_r	knee_angle_r	knee_angle_r_beta	ankle_angle_r	subtalar_angle_r	mtp_angle_r	hip_flexion_l	hip_adduction_l	hip_rotation_l	knee_angle_l	knee_angle_l_beta	ankle_angle_l	subtalar_angle_l	mtp_angle_l	L5_S1_Flex_Ext	L5_S1_Lat_Bending	L5_S1_axial_rotation	L4_L5_Flex_Ext	L4_L5_Lat_Bending	L4_L5_axial_rotation	L3_L4_Flex_Ext	L3_L4_Lat_Bending	L3_L4_axial_rotation	L2_L3_Flex_Ext	L2_L3_Lat_Bending	L2_L3_axial_rotation	L1_L2_Flex_Ext	L1_L2_Lat_Bending	L1_L2_axial_rotation	L1_T12_Flex_Ext	L1_T12_Lat_Bending	L1_T12_axial_rotation	Abs_r3	Abs_r2	Abs_r1	Abs_t1	Abs_t2	neck_flexion	neck_bending	neck_rotation	arm_flex_r	arm_add_r	arm_rot_r	elbow_flex_r	pro_sup_r	wrist_flex_r	wrist_dev_r	arm_flex_l	arm_add_l	arm_rot_l	elbow_flex_l	pro_sup_l	wrist_flex_l	wrist_dev_l
3.389831	-4.022380	0.045065	69.123920	0.210371	0.902297	0.579750	7.114904	1.183250	10.666967	11.363420	0.198329	22.576544	-16.044412	0.000000	3.751512	-1.499943	-0.873871	4.000221	0.069817	30.364673	3.313769	0.000000	0.274495	0.147704	1.835374	0.509764	0.196446	1.950085	0.450967	0.359127	1.950085	0.313720	0.359127	1.605952	0.254896	0.301197	1.491242	0.156846	0.228793	1.376531	1.960688	1.670853	10.207801	0.000000	0.000000	27.963243	-6.314512	-11.131850	12.997400	-12.615454	131.873065	3.284762	5.503333	-3.624617	1.071928	21.086320	-8.316979	131.588509	9.028205	14.416578	-15.892951	1.392832
3.406780	-3.840808	0.198241	68.518180	0.211167	0.903287	0.578754	6.665281	1.349487	11.325463	10.976478	0.191576	22.089663	-16.115393	0.000000	3.048576	-1.551159	0.349839	3.399256	0.059328	29.474649	0.822761	0.000000	0.266319	0.178681	1.926282	0.494581	0.237645	2.046674	0.437536	0.434444	2.046674	0.304376	0.434444	1.685497	0.247304	0.364366	1.565104	0.152175	0.276776	1.444711	1.902291	2.021272	10.713401	0.000000	0.000000	27.811577	-6.351755	-10.773606	13.769594	-11.846822	134.731150	3.245466	4.427708	-3.920667	0.660440	21.568182	-6.998483	134.782233	7.995696	13.707674	-17.101162	1.214462
3.423729	-3.674920	0.328692	67.936066	0.211676	0.904260	0.578178	6.320110	1.496589	11.890107	10.682806	0.186450	21.654874	-16.100518	0.000000	2.429623	-1.593941	1.482477	2.840156	0.049570	28.600099	-1.541325	0.000000	0.256741	0.209957	2.016892	0.476793	0.279243	2.142948	0.421799	0.510489	2.142948	0.293429	0.510489	1.764781	0.238409	0.428144	1.638725	0.146702	0.325223	1.512669	1.833872	2.375073	11.217349	0.000000	0.000000	27.599598	-6.417463	-10.485545	14.570925	-11.112045	136.039225	3.467841	3.562726	-4.269226	0.097413	22.224053	-5.517348	138.312632	6.936525	12.586966	-18.466189	0.687645
3.440678	-3.531436	0.433040	67.402906	0.211849	0.905152	0.578027	6.092210	1.618533	12.353286	10.497792	0.183221	21.299231	-16.018851	0.000000	1.909161	-1.618709	2.531116	2.327514	0.040623	27.799364	-3.715470	0.000000	0.246629	0.240589	2.106410	0.458014	0.319984	2.238061	0.405186	0.584968	2.238061	0.281872	0.584968	1.843109	0.229019	0.490609	1.711458	0.140924	0.372673	1.579808	1.761643	2.721592	11.715223	0.000000	0.000000	27.342486	-6.498748	-10.279863	15.287981	-10.415109	135.475684	3.977799	3.349016	-4.654894	-0.459968	23.033910	-3.876113	141.790553	5.870171	11.355258	-19.964053	-0.088519
3.457627	-3.407598	0.515308	66.948619	0.211701	0.905935	0.578335	5.978963	1.722041	12.716421	10.424566	0.181943	21.021932	-15.920680	0.000000	1.496355	-1.632605	3.474988	1.877541	0.032769	27.089775	-5.653257	0.000000	0.235363	0.269106	2.185916	0.437093	0.357910	2.322535	0.386678	0.654303	2.322535	0.268996	0.654303	1.912676	0.218558	0.548760	1.776056	0.134486	0.416845	1.639437	1.681174	3.044176	12.157406	0.000000	0.000000	27.033185	-6.597231	-10.180389	15.971845	-9.779926	133.290655	4.789679	3.494308	-5.083310	-1.062837	23.988854	-2.101001	145.072014	4.784212	10.138658	-21.431684	-0.949865
3.474576	-3.229446	0.594274	66.593295	0.210973	0.906747	0.579133	5.936072	1.847526	12.884915	10.451092	0.182406	20.815061	-15.709754	0.000000	1.163631	-1.687233	4.387384	1.504739	0.026263	26.470336	-7.445226	0.000000	0.219648	0.303368	2.281753	0.407909	0.403479	2.424363	0.360860	0.737609	2.424363	0.251036	0.737609	1.996534	0.203966	0.618628	1.853924	0.125507	0.469917	1.711315	1.568927	3.431760	12.690426	0.000000	0.000000	26.557817	-6.786617	-10.429444	16.542494	-9.370902	129.325585	6.011434	4.091618	-5.541787	-1.622306	25.664746	0.547704	153.259041	1.739238	4.695829	-21.577968	-3.214500
